<svg id="_3LC-RegularDrk" data-name="3LC-RegularDrk" xmlns="http://www.w3.org/2000/svg" xmlns:xlink="http://www.w3.org/1999/xlink" width="277.582" height="90.024" viewBox="0 0 277.582 90.024">
  <defs>
    <clipPath id="clip-path">
      <rect id="Rectangle_68" data-name="Rectangle 68" width="277.582" height="90.024" fill="none"/>
    </clipPath>
    <clipPath id="clip-path-2">
      <rect id="Rectangle_67" data-name="Rectangle 67" width="277.582" height="90.024" transform="translate(0 0)" fill="none"/>
    </clipPath>
    <clipPath id="clip-path-3">
      <rect id="Rectangle_64" data-name="Rectangle 64" width="89.932" height="89.932" transform="translate(0 0.092)" fill="none"/>
    </clipPath>
    <clipPath id="clip-path-4">
      <rect id="Rectangle_66" data-name="Rectangle 66" width="89.932" height="89.932" fill="none"/>
    </clipPath>
  </defs>
  <g id="Group_194" data-name="Group 194" clip-path="url(#clip-path)">
    <path id="Path_134" data-name="Path 134" d="M124.674,31.667h-4.709V29.722h11.449v1.945h-4.623V58.582h-2.117Z" fill="#d9d9d9"/>
    <path id="Path_135" data-name="Path 135" d="M136.666,29.722h2.117V42.078h6.869V29.722h2.117v28.86h-2.117V44.022h-6.869v14.56h-2.117Z" fill="#d9d9d9"/>
    <g id="Group_193" data-name="Group 193">
      <g id="Group_192" data-name="Group 192" clip-path="url(#clip-path-2)">
        <path id="Path_136" data-name="Path 136" d="M155.267,29.722h4.277c4.321,0,6.135,1.945,6.135,6.438v1.469c0,3.542-1.08,5.486-2.938,6.091,1.9.6,2.679,2.118,2.679,5.919a72.65,72.65,0,0,0,.3,8.943h-2.074a73.149,73.149,0,0,1-.3-8.727c0-3.888-.6-5.141-3.629-5.141h-2.333V58.582h-2.117Zm2.117,13.134h2.506c3.024,0,3.629-2.074,3.629-5.141V36.246c0-2.938-.907-4.666-4.061-4.666h-2.074Z" fill="#d9d9d9"/>
        <path id="Path_137" data-name="Path 137" d="M181.128,44.066h-6.567V56.638h7.388l-.3,1.944h-9.2V29.722h9.073v1.945h-6.956V42.122h6.567Z" fill="#d9d9d9"/>
        <path id="Path_138" data-name="Path 138" d="M196.36,44.066h-6.567V56.638h7.388l-.3,1.944h-9.2V29.722h9.073v1.945h-6.956V42.122h6.567Z" fill="#d9d9d9"/>
        <path id="Path_139" data-name="Path 139" d="M209.957,29.722h2.117V56.638h7.258l-.3,1.944h-9.073Z" fill="#d9d9d9"/>
        <rect id="Rectangle_62" data-name="Rectangle 62" width="2.117" height="28.86" transform="translate(223.053 29.722)" fill="#d9d9d9"/>
        <path id="Path_140" data-name="Path 140" d="M232.754,58.582V29.722h2.635l5.66,19.744a45.873,45.873,0,0,1,1.167,5.141h.086c-.13-4.1-.216-8.165-.216-12.831V29.722h2.074v28.86h-2.549L235.3,36.116a27.258,27.258,0,0,1-.735-3.283h-.043c.173,3.456.3,8.554.3,13.782V58.582Z" fill="#d9d9d9"/>
        <path id="Path_141" data-name="Path 141" d="M260.385,44.066h-6.567V56.638h7.388l-.3,1.944h-9.2V29.722h9.073v1.945h-6.956V42.122h6.567Z" fill="#d9d9d9"/>
        <path id="Path_142" data-name="Path 142" d="M268.23,50.719v1.6c0,3.111,1.123,4.753,3.37,4.753,2.29,0,3.37-1.425,3.37-5.487,0-3.542-.778-5.1-3.8-7.431-3.068-2.376-4.58-3.758-4.58-7.992,0-3.543,1.08-6.826,5.141-6.783,3.586,0,4.926,2.246,4.926,6.264v1.21h-2.117V35.685c0-2.636-.562-4.451-2.852-4.451-2.376,0-2.981,2.074-2.981,4.58,0,3.154.648,4.148,3.37,6.264,3.8,2.938,5.012,4.493,5.012,9.246,0,4.061-.951,7.6-5.487,7.6-4.147,0-5.487-2.809-5.487-6.611v-1.6Z" fill="#d9d9d9"/>
        <path id="Path_143" data-name="Path 143" d="M217.118,73.263V83.656c0,3.23-1.292,4.9-3.934,4.9-2.936,0-3.817-2-3.817-4.9V73.292c0-3.053,1.262-4.815,3.9-4.815,2.848,0,3.846,2.143,3.846,4.786m-6.283.029V83.685c0,2.614.94,3.583,2.407,3.583,1.557,0,2.408-.969,2.408-3.7V73.321c0-2.436-.881-3.523-2.437-3.523-1.615,0-2.378,1.028-2.378,3.494" fill="#d9d9d9"/>
        <path id="Path_144" data-name="Path 144" d="M221.416,68.711H227.7v1.321h-4.844v7.252h4.521v1.321h-4.521v9.719h-1.439Z" fill="#d9d9d9"/>
        <path id="Path_145" data-name="Path 145" d="M243.578,82.863v.588c0,2.671-.5,5.108-3.641,5.108-3.229,0-3.67-2.5-3.67-5.285V73.233c0-3.229,1.321-4.756,3.67-4.756,3.024,0,3.553,2.261,3.553,4.727v.675h-1.5v-.7c0-1.7-.205-3.377-2.084-3.377-1.791,0-2.173,1.468-2.173,3.465V83.3c0,2.437.558,3.964,2.232,3.964,1.849,0,2.113-1.644,2.113-3.787v-.617Z" fill="#d9d9d9"/>
        <path id="Path_146" data-name="Path 146" d="M254.893,73.263V83.656c0,3.23-1.292,4.9-3.934,4.9-2.936,0-3.817-2-3.817-4.9V73.292c0-3.053,1.262-4.815,3.9-4.815,2.848,0,3.846,2.143,3.846,4.786m-6.283.029V83.685c0,2.614.94,3.583,2.407,3.583,1.557,0,2.408-.969,2.408-3.7V73.321c0-2.436-.881-3.523-2.437-3.523-1.615,0-2.378,1.028-2.378,3.494" fill="#d9d9d9"/>
        <path id="Path_147" data-name="Path 147" d="M259.191,68.711h3.142c4.286,0,4.492,2.936,4.492,5.7v7.9c0,3.025-.441,6.019-4.727,6.019h-2.907Zm1.439,18.321h1.35c2.643,0,3.377-1.38,3.377-4.316V74.143c0-2.584-.47-4.14-3.347-4.14h-1.38Z" fill="#d9d9d9"/>
        <path id="Path_148" data-name="Path 148" d="M277.024,78.459h-4.463V87h5.021l-.206,1.321h-6.254V68.711h6.166v1.322h-4.727v7.105h4.463Z" fill="#d9d9d9"/>
        <g id="Group_188" data-name="Group 188" opacity="0">
          <g id="Group_187" data-name="Group 187">
            <g id="Group_186" data-name="Group 186" clip-path="url(#clip-path-3)">
              <rect id="Rectangle_63" data-name="Rectangle 63" width="89.677" height="89.677" transform="translate(0.128 0.22)" fill="none" stroke="#000" stroke-miterlimit="10" stroke-width="0.255"/>
            </g>
          </g>
        </g>
        <path id="Path_149" data-name="Path 149" d="M68.941,44.962l-6.73,11.656L55.486,44.965l6.727-11.651Z" fill="#d6d6d6"/>
        <path id="Path_150" data-name="Path 150" d="M77.771,60.252,71.04,71.908l-5.212-9.024-1.206-2.092L71.35,49.14l5.522,9.569.005,0Z" fill="#d6d6d6"/>
        <path id="Path_151" data-name="Path 151" d="M85.254,78.307l-5.26,9.111L74.78,78.386l-1.33-2.3,6.729-11.656,5.075,8.787a5.093,5.093,0,0,1,0,5.091" fill="#d6d6d6"/>
        <path id="Path_152" data-name="Path 152" d="M20.812,11.757l5.072-8.785A5.092,5.092,0,0,1,30.293.426l9.905,0L33.653,11.76Z" fill="#f1e71c"/>
        <path id="Path_153" data-name="Path 153" d="M58.1.425,51.554,11.761H49.77l-11.3,0L45.013.424H58.1Z" fill="#f1e71c"/>
        <path id="Path_154" data-name="Path 154" d="M76.381.423,69.836,11.758H56.376L62.921.423Z" fill="#f1e71c"/>
        <path id="Path_155" data-name="Path 155" d="M85.252,16.709,80.177,25.5,73.449,13.851,79.994,2.515l5.258,9.1a5.091,5.091,0,0,1,0,5.091" fill="#d6d6d6"/>
        <path id="Path_156" data-name="Path 156" d="M2.845,42.876,9.575,31.22l12.841,0-6.73,11.657Z" fill="#f1e71c"/>
        <path id="Path_157" data-name="Path 157" d="M29.639,27.052,36.06,15.93H49.147L42.728,27.048Z" fill="#f1e71c"/>
        <path id="Path_158" data-name="Path 158" d="M40.317,31.223,33.59,42.874l-2.415,0H20.5l6.73-11.656H40.317Z" fill="#f1e71c"/>
        <path id="Path_159" data-name="Path 159" d="M67.429,15.928,61.008,27.05H47.548l6.421-11.122,3.026,0,0,0Z" fill="#f1e71c"/>
        <path id="Path_160" data-name="Path 160" d="M58.6,31.221,51.87,42.877H38.411L45.14,31.221H58.6Z" fill="#f1e71c"/>
        <path id="Path_161" data-name="Path 161" d="M77.77,29.67,71.349,40.792l-5.527-9.571-1.2-2.082,6.418-11.117,5.212,9.023Z" fill="#d6d6d6"/>
        <path id="Path_162" data-name="Path 162" d="M15.686,47.049,22.413,58.71l-12.841,0L2.842,47.051Z" fill="#2c6577"/>
        <path id="Path_163" data-name="Path 163" d="M40.317,58.706l-11.047,0H27.228L25.839,56.3,20.5,47.048l10.679,0h2.407l1.206,2.093Z" fill="#2c6577"/>
        <path id="Path_164" data-name="Path 164" d="M58.6,58.707H47.553l-2.416,0-1.2-2.085L38.4,47.05l11.061,0H51.87l1.209,2.087Z" fill="#2c6577"/>
        <path id="Path_165" data-name="Path 165" d="M31.37,74.215H20.318l-1.792,0L17.01,71.593,11.984,62.88H22.04l2.786,0,1.018,1.76Z" fill="#2c6577"/>
        <path id="Path_166" data-name="Path 166" d="M58.1,89.506l-10.058,0H45.011l-.893-1.554-5.53-9.566H49.641l2.036,0L53.071,80.8Z" fill="#2c6577"/>
        <path id="Path_167" data-name="Path 167" d="M76.388,89.506H62.92L61.9,87.739l-5.4-9.351H69.965l1.077,1.87Z" fill="#2c6577"/>
        <path id="Path_168" data-name="Path 168" d="M25.884,86.96l-4.872-8.434a.093.093,0,0,1,.08-.139l10.274,0h2.355a.092.092,0,0,1,.079.046l1.182,2.042,5.135,8.893a.093.093,0,0,1-.08.139l-9.74,0a5.1,5.1,0,0,1-4.413-2.548" fill="#2c6577"/>
        <g id="Group_191" data-name="Group 191" opacity="0">
          <g id="Group_190" data-name="Group 190">
            <g id="Group_189" data-name="Group 189" clip-path="url(#clip-path-4)">
              <rect id="Rectangle_65" data-name="Rectangle 65" width="89.677" height="89.677" transform="translate(0.128 0.127)" fill="none" stroke="#000" stroke-miterlimit="10" stroke-width="0.255"/>
            </g>
          </g>
        </g>
        <path id="Path_169" data-name="Path 169" d="M25.884,86.96l-4.872-8.434a.093.093,0,0,1,.08-.139l10.274,0h2.355a.092.092,0,0,1,.079.046l1.182,2.042,5.135,8.893a.093.093,0,0,1-.08.139l-9.74,0a5.1,5.1,0,0,1-4.413-2.548" fill="#2c6577"/>
      </g>
    </g>
  </g>
</svg>
