<svg xmlns="http://www.w3.org/2000/svg" xmlns:xlink="http://www.w3.org/1999/xlink" width="274.082" height="89.087" viewBox="0 0 274.082 89.087">
  <defs>
    <clipPath id="clip-path">
      <rect id="Rectangle_61" data-name="Rectangle 61" width="274.082" height="89.087" transform="translate(0 0)" fill="none"/>
    </clipPath>
  </defs>
  <g id="_3LC-RegularLght" data-name="3LC-RegularLght" transform="translate(0 0)">
    <path id="Path_98" data-name="Path 98" d="M121.72,31.29h-4.692V29.352h11.408V31.29h-4.607V58.109H121.72Z" fill="#2a3541"/>
    <path id="Path_99" data-name="Path 99" d="M133.669,29.352h2.109V41.664h6.845V29.352h2.11V58.109h-2.11V43.6h-6.845V58.109h-2.109Z" fill="#2a3541"/>
    <g id="Group_184" data-name="Group 184">
      <g id="Group_183" data-name="Group 183" clip-path="url(#clip-path)">
        <path id="Path_100" data-name="Path 100" d="M152.2,29.352h4.262c4.3,0,6.112,1.938,6.112,6.415V37.23c0,3.53-1.076,5.467-2.927,6.07,1.894.6,2.669,2.11,2.669,5.9a72.339,72.339,0,0,0,.3,8.911h-2.066a72.834,72.834,0,0,1-.3-8.7c0-3.874-.6-5.123-3.616-5.123h-2.325V58.109H152.2Zm2.109,13.087h2.5c3.013,0,3.616-2.066,3.616-5.123V35.853c0-2.928-.9-4.65-4.047-4.65h-2.066Z" fill="#2a3541"/>
        <path id="Path_101" data-name="Path 101" d="M177.972,43.645h-6.543V56.172h7.361l-.3,1.937h-9.17V29.352h9.04V31.29h-6.93V41.708h6.543Z" fill="#2a3541"/>
        <path id="Path_102" data-name="Path 102" d="M193.15,43.645h-6.543V56.172h7.361l-.3,1.937H184.5V29.352h9.04V31.29h-6.93V41.708h6.543Z" fill="#2a3541"/>
        <path id="Path_103" data-name="Path 103" d="M206.7,29.352h2.109v26.82h7.233l-.3,1.937H206.7Z" fill="#2a3541"/>
        <rect id="Rectangle_60" data-name="Rectangle 60" width="2.109" height="28.757" transform="translate(219.748 29.352)" fill="#2a3541"/>
        <path id="Path_104" data-name="Path 104" d="M229.414,58.11V29.353h2.626l5.639,19.674a45.524,45.524,0,0,1,1.163,5.122h.086c-.129-4.089-.215-8.136-.215-12.785V29.353h2.066V58.11h-2.54l-6.285-22.386a26.91,26.91,0,0,1-.732-3.271h-.043c.172,3.444.3,8.523.3,13.732V58.11Z" fill="#2a3541"/>
        <path id="Path_105" data-name="Path 105" d="M256.947,43.645H250.4V56.172h7.361l-.3,1.937h-9.17V29.352h9.041V31.29H250.4V41.708h6.543Z" fill="#2a3541"/>
        <path id="Path_106" data-name="Path 106" d="M264.763,50.274v1.593c0,3.1,1.119,4.735,3.358,4.735,2.281,0,3.358-1.42,3.358-5.467,0-3.53-.775-5.08-3.789-7.4-3.056-2.368-4.563-3.745-4.563-7.964,0-3.531,1.076-6.8,5.123-6.759,3.573,0,4.908,2.238,4.908,6.242v1.206h-2.11V35.293c0-2.626-.56-4.434-2.841-4.434-2.368,0-2.97,2.066-2.97,4.563,0,3.143.645,4.133,3.357,6.242,3.789,2.928,4.994,4.477,4.994,9.213,0,4.047-.947,7.576-5.467,7.576-4.133,0-5.467-2.8-5.467-6.586V50.274Z" fill="#2a3541"/>
        <path id="Path_107" data-name="Path 107" d="M213.834,72.738V83.094c0,3.218-1.288,4.885-3.921,4.885-2.925,0-3.8-1.989-3.8-4.885V72.767c0-3.042,1.258-4.8,3.891-4.8,2.838,0,3.833,2.136,3.833,4.769m-6.261.029V83.123c0,2.6.936,3.57,2.4,3.57,1.55,0,2.4-.966,2.4-3.687V72.8c0-2.428-.878-3.51-2.428-3.51-1.609,0-2.37,1.024-2.37,3.481" fill="#2a3541"/>
        <path id="Path_108" data-name="Path 108" d="M218.116,68.2h6.261V69.52H219.55v7.225h4.5v1.317h-4.5v9.684h-1.434Z" fill="#2a3541"/>
        <path id="Path_109" data-name="Path 109" d="M240.2,82.3v.586c0,2.661-.5,5.089-3.628,5.089-3.218,0-3.656-2.486-3.656-5.265v-10c0-3.219,1.316-4.74,3.656-4.74,3.014,0,3.54,2.253,3.54,4.71v.673h-1.492v-.7c0-1.7-.205-3.364-2.077-3.364-1.785,0-2.165,1.463-2.165,3.452v10c0,2.428.556,3.95,2.223,3.95,1.844,0,2.107-1.639,2.107-3.774V82.3Z" fill="#2a3541"/>
        <path id="Path_110" data-name="Path 110" d="M251.474,72.738V83.094c0,3.218-1.288,4.885-3.921,4.885-2.925,0-3.8-1.989-3.8-4.885V72.767c0-3.042,1.258-4.8,3.891-4.8,2.838,0,3.833,2.136,3.833,4.769m-6.261.029V83.123c0,2.6.936,3.57,2.4,3.57,1.55,0,2.4-.966,2.4-3.687V72.8c0-2.428-.878-3.51-2.428-3.51-1.609,0-2.37,1.024-2.37,3.481" fill="#2a3541"/>
        <path id="Path_111" data-name="Path 111" d="M255.757,68.2h3.13c4.271,0,4.476,2.925,4.476,5.675v7.87c0,3.014-.439,6-4.71,6h-2.9Zm1.433,18.255h1.345c2.634,0,3.365-1.375,3.365-4.3V73.615c0-2.574-.468-4.125-3.335-4.125H257.19Z" fill="#2a3541"/>
        <path id="Path_112" data-name="Path 112" d="M273.526,77.916h-4.447v8.513h5l-.2,1.317h-6.232V68.2h6.144V69.52h-4.71V76.6h4.447Z" fill="#2a3541"/>
        <path id="Path_113" data-name="Path 113" d="M66.1,44.54,59.369,56.2,52.644,44.543l6.727-11.651Z" fill="#2a3541"/>
        <path id="Path_114" data-name="Path 114" d="M74.928,59.829,68.2,71.485l-5.212-9.024L61.78,60.369l6.727-11.652,5.522,9.569.005,0Z" fill="#2a3541"/>
        <path id="Path_115" data-name="Path 115" d="M82.412,77.885,77.152,87l-5.214-9.032-1.33-2.3,6.729-11.656,5.075,8.787a5.093,5.093,0,0,1,0,5.091" fill="#2a3541"/>
        <path id="Path_116" data-name="Path 116" d="M17.97,11.335,23.042,2.55A5.092,5.092,0,0,1,27.451,0l9.9,0L30.811,11.338Z" fill="#f1e71c"/>
        <path id="Path_117" data-name="Path 117" d="M55.257,0,48.712,11.339H46.928l-11.3,0L42.171,0H55.257Z" fill="#f1e71c"/>
        <path id="Path_118" data-name="Path 118" d="M73.539,0,66.994,11.336H53.534L60.079,0Z" fill="#f1e71c"/>
        <path id="Path_119" data-name="Path 119" d="M82.41,16.287l-5.075,8.79L70.607,13.429,77.152,2.093l5.258,9.1a5.091,5.091,0,0,1,0,5.091" fill="#2a3541"/>
        <path id="Path_120" data-name="Path 120" d="M0,42.454,6.733,30.8l12.841,0-6.73,11.657Z" fill="#f1e71c"/>
        <path id="Path_121" data-name="Path 121" d="M26.8,26.629l6.421-11.122H46.3L39.886,26.625Z" fill="#f1e71c"/>
        <path id="Path_122" data-name="Path 122" d="M37.475,30.8,30.748,42.452l-2.415,0H17.659L24.389,30.8H37.475Z" fill="#f1e71c"/>
        <path id="Path_123" data-name="Path 123" d="M64.587,15.506,58.166,26.628H44.706l6.421-11.122,3.026,0,0,0Z" fill="#f1e71c"/>
        <path id="Path_124" data-name="Path 124" d="M55.758,30.8l-6.73,11.656H35.569L42.3,30.8h13.46Z" fill="#f1e71c"/>
        <path id="Path_125" data-name="Path 125" d="M74.928,29.247,68.507,40.369,62.98,30.8l-1.2-2.082L68.2,17.6l5.212,9.023Z" fill="#2a3541"/>
        <path id="Path_126" data-name="Path 126" d="M12.844,46.626l6.727,11.662-12.841,0L0,46.629Z" fill="#2c6577"/>
        <path id="Path_127" data-name="Path 127" d="M37.475,58.284l-11.047,0H24.386L23,55.878l-5.338-9.252,10.679,0h2.407l1.206,2.093Z" fill="#2c6577"/>
        <path id="Path_128" data-name="Path 128" d="M55.763,58.284H44.711l-2.416,0-1.2-2.085L35.56,46.627l11.061,0h2.407l1.208,2.087Z" fill="#2c6577"/>
        <path id="Path_129" data-name="Path 129" d="M28.528,73.793H17.476l-1.792,0-1.516-2.625L9.142,62.458H19.2l2.786,0L23,64.221Z" fill="#2c6577"/>
        <path id="Path_130" data-name="Path 130" d="M55.258,89.083l-10.058,0H42.169l-.893-1.554-5.53-9.566H46.8l2.036,0,1.394,2.412Z" fill="#2c6577"/>
        <path id="Path_131" data-name="Path 131" d="M73.546,89.084H60.078l-1.02-1.769-5.4-9.351H67.123l1.077,1.87Z" fill="#2c6577"/>
        <path id="Path_132" data-name="Path 132" d="M23.042,86.538,18.17,78.1a.093.093,0,0,1,.08-.139l10.274,0h2.355a.091.091,0,0,1,.079.046l1.182,2.042,5.135,8.893a.093.093,0,0,1-.08.139l-9.74,0a5.1,5.1,0,0,1-4.413-2.548" fill="#2c6577"/>
        <path id="Path_133" data-name="Path 133" d="M23.042,86.538,18.17,78.1a.093.093,0,0,1,.08-.139l10.274,0h2.355a.091.091,0,0,1,.079.046l1.182,2.042,5.135,8.893a.093.093,0,0,1-.08.139l-9.74,0a5.1,5.1,0,0,1-4.413-2.548" fill="#2c6577"/>
      </g>
    </g>
  </g>
</svg>
